<?xml version="1.0" encoding="UTF-8" standalone="no"?> <svg width="64" height="64" viewBox="0 0 64 64" fill="none" xmlns="http://www.w3.org/2000/svg">
<path d="M59.5701 36.2899L59.6401 28.2099L55.0001 26.2099L52.1801 20.6399L54.5701 15.7099L49.4601 9.70986L43.3601 11.7099L38.5401 9.85986L36.3601 4.10986H27.5401L26.5401 8.70986L20.6801 11.5399L15.6101 9.53986L9.79007 14.7099L11.7101 19.7899L10.1401 25.2899L4.46007 27.6399L3.82007 34.9999L8.89007 37.1399L11.6101 42.7799L9.29007 48.3899L15.2901 54.1399L19.5401 52.0699L25.5401 54.1399L28.8201 59.8199L35.6101 59.7499L37.3201 54.9999L43.4301 52.5399L49.2101 54.3299L54.6401 48.4999L52.0001 44.2899L54.0001 38.7099L59.5701 36.2899ZM32.0001 45.0699C29.4151 45.0699 26.8881 44.3033 24.7388 42.8672C22.5894 41.431 20.9142 39.3898 19.925 37.0015C18.9357 34.6133 18.6769 31.9854 19.1812 29.45C19.6855 26.9147 20.9303 24.5858 22.7582 22.758C24.5861 20.9301 26.9149 19.6853 29.4502 19.181C31.9856 18.6767 34.6135 18.9355 37.0017 19.9248C39.39 20.914 41.4312 22.5892 42.8674 24.7386C44.3035 26.8879 45.0701 29.4149 45.0701 31.9999C45.0701 35.4662 43.6931 38.7906 41.242 41.2417C38.7909 43.6928 35.4664 45.0699 32.0001 45.0699V45.0699Z" fill="#78B9EB"/>
<path d="M32 17.46C29.1242 17.46 26.3131 18.3127 23.922 19.9104C21.5309 21.5081 19.6673 23.7789 18.5668 26.4357C17.4663 29.0926 17.1783 32.0161 17.7393 34.8366C18.3004 37.6571 19.6852 40.2478 21.7186 42.2813C23.7521 44.3148 26.3429 45.6995 29.1634 46.2606C31.9838 46.8216 34.9073 46.5337 37.5642 45.4332C40.221 44.3327 42.4919 42.469 44.0895 40.078C45.6872 37.6869 46.54 34.8757 46.54 32C46.5373 28.1445 45.0046 24.4478 42.2784 21.7216C39.5522 18.9953 35.8554 17.4626 32 17.46V17.46ZM32 44C29.6266 44 27.3065 43.2962 25.3331 41.9776C23.3597 40.659 21.8217 38.7849 20.9134 36.5922C20.0052 34.3994 19.7675 31.9867 20.2305 29.6589C20.6936 27.3311 21.8365 25.1929 23.5147 23.5147C25.1929 21.8365 27.3311 20.6936 29.6589 20.2305C31.9867 19.7675 34.3995 20.0052 36.5922 20.9134C38.7849 21.8217 40.659 23.3597 41.9776 25.3331C43.2962 27.3065 44 29.6266 44 32C43.9868 35.1785 42.7183 38.2231 40.4707 40.4707C38.2231 42.7183 35.1785 43.9868 32 44V44Z" fill="#006DF0"/>
<path d="M56.78 25.45C56.3622 25.4427 55.9571 25.3047 55.6217 25.0554C55.2863 24.8061 55.0374 24.458 54.91 24.06C54.5994 23.1577 54.232 22.2759 53.81 21.42C53.6165 21.0457 53.5462 20.6199 53.6091 20.2033C53.6719 19.7867 53.8647 19.4006 54.16 19.1C54.9923 18.2609 55.4594 17.1269 55.4594 15.945C55.4594 14.7631 54.9923 13.6291 54.16 12.79L51.21 9.85C50.3705 9.01462 49.2343 8.54566 48.05 8.54566C46.8657 8.54566 45.7295 9.01462 44.89 9.85C44.5891 10.1415 44.2042 10.3311 43.7898 10.3921C43.3753 10.4531 42.9521 10.3824 42.58 10.19C41.7225 9.77146 40.841 9.40415 39.94 9.09C39.542 8.9626 39.1939 8.71372 38.9446 8.37832C38.6953 8.04292 38.5573 7.63785 38.55 7.22C38.55 6.03448 38.0791 4.89752 37.2408 4.05923C36.4025 3.22095 35.2655 2.75 34.08 2.75H29.92C28.7345 2.75 27.5975 3.22095 26.7592 4.05923C25.9209 4.89752 25.45 6.03448 25.45 7.22C25.4427 7.63785 25.3047 8.04292 25.0554 8.37832C24.8061 8.71372 24.458 8.9626 24.06 9.09C23.159 9.40415 22.2775 9.77146 21.42 10.19C21.0457 10.3835 20.6199 10.4538 20.2033 10.3909C19.7867 10.3281 19.4006 10.1353 19.1 9.84C18.2609 9.00766 17.1269 8.54062 15.945 8.54062C14.7631 8.54062 13.6291 9.00766 12.79 9.84L9.85 12.79C9.01462 13.6295 8.54566 14.7657 8.54566 15.95C8.54566 17.1343 9.01462 18.2705 9.85 19.11C10.1415 19.4109 10.3311 19.7958 10.3921 20.2102C10.4531 20.6247 10.3824 21.0479 10.19 21.42C9.77146 22.2775 9.40415 23.159 9.09 24.06C8.9626 24.458 8.71372 24.8061 8.37832 25.0554C8.04292 25.3047 7.63785 25.4427 7.22 25.45C6.03448 25.45 4.89752 25.9209 4.05923 26.7592C3.22095 27.5975 2.75 28.7345 2.75 29.92V34.08C2.75 35.2655 3.22095 36.4025 4.05923 37.2408C4.89752 38.0791 6.03448 38.55 7.22 38.55C7.63785 38.5573 8.04292 38.6953 8.37832 38.9446C8.71372 39.1939 8.9626 39.542 9.09 39.94C9.40415 40.841 9.77146 41.7225 10.19 42.58C10.3835 42.9543 10.4538 43.3801 10.3909 43.7967C10.3281 44.2133 10.1353 44.5995 9.84 44.9C9.00766 45.7391 8.54062 46.8731 8.54062 48.055C8.54062 49.2369 9.00766 50.3709 9.84 51.21L12.78 54.15C13.6182 54.9878 14.7549 55.4585 15.94 55.4585C17.1251 55.4585 18.2618 54.9878 19.1 54.15C19.4009 53.8585 19.7858 53.6689 20.2002 53.6079C20.6147 53.5469 21.0379 53.6176 21.41 53.81C22.2675 54.2285 23.149 54.5959 24.05 54.91C24.448 55.0374 24.7961 55.2863 25.0454 55.6217C25.2947 55.9571 25.4327 56.3622 25.44 56.78C25.44 57.9655 25.9109 59.1025 26.7492 59.9408C27.5875 60.7791 28.7245 61.25 29.91 61.25H34.07C35.2555 61.25 36.3925 60.7791 37.2308 59.9408C38.0691 59.1025 38.54 57.9655 38.54 56.78C38.5473 56.3622 38.6853 55.9571 38.9346 55.6217C39.1839 55.2863 39.532 55.0374 39.93 54.91C40.831 54.5959 41.7125 54.2285 42.57 53.81C42.9443 53.6165 43.3701 53.5462 43.7867 53.6091C44.2033 53.6719 44.5894 53.8647 44.89 54.16C45.7278 54.9948 46.8623 55.4635 48.045 55.4635C49.2277 55.4635 50.3622 54.9948 51.2 54.16L54.14 51.22C54.9754 50.3805 55.4443 49.2443 55.4443 48.06C55.4443 46.8757 54.9754 45.7395 54.14 44.9C53.8485 44.5991 53.6589 44.2142 53.5979 43.7998C53.5369 43.3853 53.6076 42.9621 53.8 42.59C54.222 41.7341 54.5894 40.8523 54.9 39.95C55.0274 39.552 55.2763 39.2039 55.6117 38.9546C55.9471 38.7053 56.3522 38.5673 56.77 38.56C57.9555 38.56 59.0925 38.0891 59.9308 37.2508C60.7691 36.4125 61.24 35.2755 61.24 34.09V29.92C61.24 28.7362 60.7704 27.6008 59.9343 26.7628C59.0982 25.9248 57.9638 25.4526 56.78 25.45V25.45ZM58.78 34.08C58.78 34.6104 58.5693 35.1191 58.1942 35.4942C57.8191 35.8693 57.3104 36.08 56.78 36.08C55.8421 36.0885 54.9301 36.3887 54.1703 36.9387C53.4106 37.4888 52.8409 38.2616 52.54 39.15C52.2595 39.9613 51.9254 40.753 51.54 41.52C51.1238 42.3628 50.9801 43.3142 51.1289 44.2424C51.2776 45.1705 51.7113 46.0294 52.37 46.7C52.7305 47.0729 52.932 47.5713 52.932 48.09C52.932 48.6087 52.7305 49.1071 52.37 49.48L49.44 52.41C49.0666 52.7735 48.5661 52.9768 48.045 52.9768C47.5239 52.9768 47.0234 52.7735 46.65 52.41C45.9798 51.7538 45.1221 51.3223 44.1958 51.1754C43.2694 51.0285 42.3203 51.1734 41.48 51.59C40.713 51.9754 39.9213 52.3095 39.11 52.59C38.2216 52.8909 37.4488 53.4606 36.8987 54.2203C36.3487 54.9801 36.0485 55.8921 36.04 56.83C36.04 57.3604 35.8293 57.8691 35.4542 58.2442C35.0791 58.6193 34.5704 58.83 34.04 58.83H29.92C29.3896 58.83 28.8809 58.6193 28.5058 58.2442C28.1307 57.8691 27.92 57.3604 27.92 56.83C27.9115 55.8921 27.6113 54.9801 27.0613 54.2203C26.5112 53.4606 25.7384 52.8909 24.85 52.59C24.0387 52.3095 23.247 51.9754 22.48 51.59C21.8565 51.2868 21.1733 51.1263 20.48 51.12C19.2965 51.1199 18.1608 51.5871 17.32 52.42C16.9471 52.7805 16.4487 52.982 15.93 52.982C15.4113 52.982 14.9129 52.7805 14.54 52.42L11.61 49.49C11.2465 49.1166 11.0432 48.6161 11.0432 48.095C11.0432 47.5739 11.2465 47.0734 11.61 46.7C12.2662 46.0298 12.6977 45.1721 12.8446 44.2458C12.9915 43.3194 12.8466 42.3703 12.43 41.53C12.0446 40.763 11.7105 39.9713 11.43 39.16V39.16C11.1291 38.2716 10.5594 37.4988 9.79966 36.9487C9.03994 36.3987 8.12791 36.0985 7.19 36.09C6.65957 36.09 6.15086 35.8793 5.77579 35.5042C5.40071 35.1291 5.19 34.6204 5.19 34.09V29.92C5.19 29.3896 5.40071 28.8809 5.77579 28.5058C6.15086 28.1307 6.65957 27.92 7.19 27.92C8.12791 27.9115 9.03994 27.6113 9.79966 27.0613C10.5594 26.5112 11.1291 25.7384 11.43 24.85C11.7105 24.0387 12.0446 23.247 12.43 22.48C12.8462 21.6372 12.9899 20.6858 12.8411 19.7576C12.6924 18.8295 12.2587 17.9706 11.6 17.3C11.2395 16.9271 11.038 16.4287 11.038 15.91C11.038 15.3913 11.2395 14.8929 11.6 14.52L14.53 11.59C14.9034 11.2265 15.4039 11.0232 15.925 11.0232C16.4461 11.0232 16.9466 11.2265 17.32 11.59C17.9902 12.2462 18.8479 12.6777 19.7742 12.8246C20.7006 12.9715 21.6497 12.8266 22.49 12.41C23.257 12.0246 24.0487 11.6905 24.86 11.41C25.7535 11.1239 26.5358 10.5668 27.0985 9.81597C27.6611 9.06518 27.9762 8.15791 28 7.22C28 6.68957 28.2107 6.18086 28.5858 5.80579C28.9609 5.43071 29.4696 5.22 30 5.22H34.16C34.6904 5.22 35.1991 5.43071 35.5742 5.80579C35.9493 6.18086 36.16 6.68957 36.16 7.22C36.1685 8.15791 36.4687 9.06994 37.0187 9.82966C37.5688 10.5894 38.3416 11.1591 39.23 11.46C40.0413 11.7405 40.833 12.0746 41.6 12.46C42.4428 12.8762 43.3942 13.0199 44.3224 12.8711C45.2505 12.7224 46.1094 12.2887 46.78 11.63C47.1529 11.2695 47.6513 11.068 48.17 11.068C48.6887 11.068 49.1871 11.2695 49.56 11.63L52.49 14.56C52.8535 14.9334 53.0568 15.4339 53.0568 15.955C53.0568 16.4761 52.8535 16.9766 52.49 17.35C51.8338 18.0202 51.4023 18.8779 51.2554 19.8042C51.1085 20.7306 51.2534 21.6797 51.67 22.52C52.0554 23.287 52.3895 24.0787 52.67 24.89C52.9566 25.7654 53.5038 26.5324 54.2383 27.0882C54.9728 27.644 55.8596 27.9622 56.78 28C57.3104 28 57.8191 28.2107 58.1942 28.5858C58.5693 28.9609 58.78 29.4696 58.78 30V34.08Z" fill="#006DF0"/>
</svg>
